<svg width="1947" height="1093" viewBox="0 0 1947 1093" fill="none" xmlns="http://www.w3.org/2000/svg">
<g filter="url(#filter0_d_93_26)">
<rect x="4" width="1939" height="1085" fill="url(#paint0_linear_93_26)" shape-rendering="crispEdges"/>
</g>
<path d="M4.00503 797.485C3.59695 821.965 28.0817 845.047 52.9746 855.398C86.2738 869.177 120.063 860.154 134.019 856.377C196.047 839.731 202.005 799.443 240.365 800.493C276.194 801.472 283.784 836.933 323.776 837.213C355.28 837.423 378.622 815.6 388.987 806.018C425.225 772.235 429.387 724.254 416.002 690.262C411.105 677.882 406.616 666.411 393.639 658.577C368.42 643.19 342.629 660.466 315.125 647.246C292.354 636.265 300.679 619.968 278.561 599.685C241.915 566.182 176.133 571.568 151.648 573.596C122.838 575.834 86.6819 578.842 58.2796 602.622C22.4502 632.628 20.4914 677.532 20.0834 686.695C18.6959 718.309 31.5912 730.199 21.226 759.156C13.8806 779.999 4.24988 782.237 4.00503 797.485Z" fill="#F7F7F7" fill-opacity="0.4"/>
<path d="M374.554 618.154C376.758 614.726 386.225 601.018 405.079 597.031C409.649 596.052 420.178 593.813 430.298 598.57C445.642 605.704 446.621 622.28 446.784 625.218C446.866 627.456 447.274 640.326 439.765 643.333C434.134 645.641 429.155 640.186 419.769 642.354C413.73 643.683 413.975 646.341 408.588 647.88C398.386 650.817 382.471 645.641 376.268 634.8C372.432 627.806 373.738 621.021 374.554 618.154Z" fill="#F7F7F7" fill-opacity="0.4"/>
<path d="M347.309 558.732C343.881 559.851 339.719 562.929 340.29 566.286C340.862 570.133 347.391 572.721 352.614 571.812C358.082 570.832 362.735 565.866 361.429 562.229C360.041 558.452 352.533 556.984 347.309 558.732Z" fill="#F7F7F7" fill-opacity="0.27"/>
<path d="M1370.01 991.589C1369.45 1026.61 1402.95 1059.63 1437 1074.44C1482.56 1094.15 1528.79 1081.24 1547.88 1075.84C1632.74 1052.02 1640.89 994.391 1693.37 995.892C1742.39 997.293 1752.77 1048.02 1807.49 1048.42C1850.59 1048.72 1882.52 1017.5 1896.7 1003.8C1946.28 955.469 1951.97 886.831 1933.66 838.204C1926.96 820.494 1920.82 804.085 1903.07 792.878C1868.56 770.866 1833.28 795.58 1795.65 776.669C1764.5 760.96 1775.89 737.647 1745.63 708.631C1695.49 660.704 1605.49 668.409 1572 671.31C1532.58 674.512 1483.12 678.815 1444.26 712.834C1395.24 755.758 1392.56 819.993 1392 833.101C1390.11 878.326 1407.75 895.336 1393.57 936.759C1383.52 966.575 1370.34 969.777 1370.01 991.589Z" fill="#F7F7F7" fill-opacity="0.4"/>
<path d="M1839.68 650.047C1834.99 651.648 1829.3 656.051 1830.08 660.853C1830.86 666.356 1839.79 670.058 1846.94 668.758C1854.42 667.357 1860.78 660.253 1859 655.05C1857.1 649.647 1846.83 647.546 1839.68 650.047Z" fill="#F7F7F7" fill-opacity="0.27"/>
<path d="M181.14 656.664C200.143 671.98 231.955 668.638 253.995 657.191C283.424 641.835 295.213 612.135 300.043 599.837C321.621 545.264 293.301 516.276 315.556 489.489C336.343 464.469 368.441 480.806 391.005 452.38C408.77 429.98 404.668 399.894 402.932 386.601C396.638 339.953 361.27 307.527 327.088 296.235C314.627 292.139 303.108 288.308 289.704 292.78C263.525 301.37 262.688 330.416 236.937 341.971C215.588 351.515 207.436 335.559 179.145 338.926C132.352 344.569 99.8302 394.915 87.7441 413.669C73.4062 435.645 55.5688 463.346 58.3823 498.252C61.9366 542.29 96.1179 571.251 103.088 577.167C127.148 597.563 143.694 595.639 160.651 620.824C172.921 638.869 169.299 647.13 181.14 656.664Z" fill="#F7F7F7" fill-opacity="0.4"/>
<path d="M244.695 444.352V448.395C244.695 454.879 243.816 460.699 242.059 465.855C240.301 471.012 237.82 475.406 234.617 479.039C231.414 482.633 227.586 485.387 223.133 487.301C218.719 489.215 213.816 490.172 208.426 490.172C203.074 490.172 198.172 489.215 193.719 487.301C189.305 485.387 185.477 482.633 182.234 479.039C178.992 475.406 176.473 471.012 174.676 465.855C172.918 460.699 172.039 454.879 172.039 448.395V444.352C172.039 437.828 172.918 432.008 174.676 426.891C176.434 421.734 178.914 417.34 182.117 413.707C185.359 410.074 189.188 407.301 193.602 405.387C198.055 403.473 202.957 402.516 208.309 402.516C213.699 402.516 218.602 403.473 223.016 405.387C227.469 407.301 231.297 410.074 234.5 413.707C237.742 417.34 240.242 421.734 242 426.891C243.797 432.008 244.695 437.828 244.695 444.352ZM226.941 448.395V444.234C226.941 439.703 226.531 435.719 225.711 432.281C224.891 428.844 223.68 425.953 222.078 423.609C220.477 421.266 218.523 419.508 216.219 418.336C213.914 417.125 211.277 416.52 208.309 416.52C205.34 416.52 202.703 417.125 200.398 418.336C198.133 419.508 196.199 421.266 194.598 423.609C193.035 425.953 191.844 428.844 191.023 432.281C190.203 435.719 189.793 439.703 189.793 444.234V448.395C189.793 452.887 190.203 456.871 191.023 460.348C191.844 463.785 193.055 466.695 194.656 469.078C196.258 471.422 198.211 473.199 200.516 474.41C202.82 475.621 205.457 476.227 208.426 476.227C211.395 476.227 214.031 475.621 216.336 474.41C218.641 473.199 220.574 471.422 222.137 469.078C223.699 466.695 224.891 463.785 225.711 460.348C226.531 456.871 226.941 452.887 226.941 448.395ZM272.82 439.137V489H255.945V425.602H271.766L272.82 439.137ZM270.359 455.074H265.789C265.789 450.387 266.395 446.168 267.605 442.418C268.816 438.629 270.516 435.406 272.703 432.75C274.891 430.055 277.488 428.004 280.496 426.598C283.543 425.152 286.941 424.43 290.691 424.43C293.66 424.43 296.375 424.859 298.836 425.719C301.297 426.578 303.406 427.945 305.164 429.82C306.961 431.695 308.328 434.176 309.266 437.262C310.242 440.348 310.73 444.117 310.73 448.57V489H293.738V448.512C293.738 445.699 293.348 443.512 292.566 441.949C291.785 440.387 290.633 439.293 289.109 438.668C287.625 438.004 285.789 437.672 283.602 437.672C281.336 437.672 279.363 438.121 277.684 439.02C276.043 439.918 274.676 441.168 273.582 442.77C272.527 444.332 271.727 446.168 271.18 448.277C270.633 450.387 270.359 452.652 270.359 455.074ZM208.016 592.559H186.102L185.984 580.488H204.383C207.625 580.488 210.281 580.078 212.352 579.258C214.422 578.398 215.965 577.168 216.98 575.566C218.035 573.926 218.562 571.934 218.562 569.59C218.562 566.934 218.055 564.785 217.039 563.145C216.062 561.504 214.52 560.312 212.41 559.57C210.34 558.828 207.664 558.457 204.383 558.457H192.195V630H174.617V544.688H204.383C209.344 544.688 213.777 545.156 217.684 546.094C221.629 547.031 224.969 548.457 227.703 550.371C230.438 552.285 232.527 554.707 233.973 557.637C235.418 560.527 236.141 563.965 236.141 567.949C236.141 571.465 235.34 574.707 233.738 577.676C232.176 580.645 229.695 583.066 226.297 584.941C222.938 586.816 218.543 587.852 213.113 588.047L208.016 592.559ZM207.254 630H181.297L188.152 616.289H207.254C210.34 616.289 212.859 615.801 214.812 614.824C216.766 613.809 218.211 612.441 219.148 610.723C220.086 609.004 220.555 607.031 220.555 604.805C220.555 602.305 220.125 600.137 219.266 598.301C218.445 596.465 217.117 595.059 215.281 594.082C213.445 593.066 211.023 592.559 208.016 592.559H191.082L191.199 580.488H212.293L216.336 585.234C221.531 585.156 225.711 586.074 228.875 587.988C232.078 589.863 234.402 592.305 235.848 595.312C237.332 598.32 238.074 601.543 238.074 604.98C238.074 610.449 236.883 615.059 234.5 618.809C232.117 622.52 228.621 625.312 224.012 627.188C219.441 629.062 213.855 630 207.254 630ZM247.508 598.945V597.715C247.508 593.066 248.172 588.789 249.5 584.883C250.828 580.938 252.762 577.52 255.301 574.629C257.84 571.738 260.965 569.492 264.676 567.891C268.387 566.25 272.645 565.43 277.449 565.43C282.254 565.43 286.531 566.25 290.281 567.891C294.031 569.492 297.176 571.738 299.715 574.629C302.293 577.52 304.246 580.938 305.574 584.883C306.902 588.789 307.566 593.066 307.566 597.715V598.945C307.566 603.555 306.902 607.832 305.574 611.777C304.246 615.684 302.293 619.102 299.715 622.031C297.176 624.922 294.051 627.168 290.34 628.77C286.629 630.371 282.371 631.172 277.566 631.172C272.762 631.172 268.484 630.371 264.734 628.77C261.023 627.168 257.879 624.922 255.301 622.031C252.762 619.102 250.828 615.684 249.5 611.777C248.172 607.832 247.508 603.555 247.508 598.945ZM264.383 597.715V598.945C264.383 601.602 264.617 604.082 265.086 606.387C265.555 608.691 266.297 610.723 267.312 612.48C268.367 614.199 269.734 615.547 271.414 616.523C273.094 617.5 275.145 617.988 277.566 617.988C279.91 617.988 281.922 617.5 283.602 616.523C285.281 615.547 286.629 614.199 287.645 612.48C288.66 610.723 289.402 608.691 289.871 606.387C290.379 604.082 290.633 601.602 290.633 598.945V597.715C290.633 595.137 290.379 592.715 289.871 590.449C289.402 588.145 288.641 586.113 287.586 584.355C286.57 582.559 285.223 581.152 283.543 580.137C281.863 579.121 279.832 578.613 277.449 578.613C275.066 578.613 273.035 579.121 271.355 580.137C269.715 581.152 268.367 582.559 267.312 584.355C266.297 586.113 265.555 588.145 265.086 590.449C264.617 592.715 264.383 595.137 264.383 597.715ZM352.156 615.703V587.461C352.156 585.43 351.824 583.691 351.16 582.246C350.496 580.762 349.461 579.609 348.055 578.789C346.688 577.969 344.91 577.559 342.723 577.559C340.848 577.559 339.227 577.891 337.859 578.555C336.492 579.18 335.438 580.098 334.695 581.309C333.953 582.48 333.582 583.867 333.582 585.469H316.707C316.707 582.773 317.332 580.215 318.582 577.793C319.832 575.371 321.648 573.242 324.031 571.406C326.414 569.531 329.246 568.066 332.527 567.012C335.848 565.957 339.559 565.43 343.66 565.43C348.582 565.43 352.957 566.25 356.785 567.891C360.613 569.531 363.621 571.992 365.809 575.273C368.035 578.555 369.148 582.656 369.148 587.578V614.707C369.148 618.184 369.363 621.035 369.793 623.262C370.223 625.449 370.848 627.363 371.668 629.004V630H354.617C353.797 628.281 353.172 626.133 352.742 623.555C352.352 620.938 352.156 618.32 352.156 615.703ZM354.383 591.387L354.5 600.938H345.066C342.84 600.938 340.906 601.191 339.266 601.699C337.625 602.207 336.277 602.93 335.223 603.867C334.168 604.766 333.387 605.82 332.879 607.031C332.41 608.242 332.176 609.57 332.176 611.016C332.176 612.461 332.508 613.77 333.172 614.941C333.836 616.074 334.793 616.973 336.043 617.637C337.293 618.262 338.758 618.574 340.438 618.574C342.977 618.574 345.184 618.066 347.059 617.051C348.934 616.035 350.379 614.785 351.395 613.301C352.449 611.816 352.996 610.41 353.035 609.082L357.488 616.23C356.863 617.832 356.004 619.492 354.91 621.211C353.855 622.93 352.508 624.551 350.867 626.074C349.227 627.559 347.254 628.789 344.949 629.766C342.645 630.703 339.91 631.172 336.746 631.172C332.723 631.172 329.07 630.371 325.789 628.77C322.547 627.129 319.969 624.883 318.055 622.031C316.18 619.141 315.242 615.859 315.242 612.188C315.242 608.867 315.867 605.918 317.117 603.34C318.367 600.762 320.203 598.594 322.625 596.836C325.086 595.039 328.152 593.691 331.824 592.793C335.496 591.855 339.754 591.387 344.598 591.387H354.383ZM399.031 580.43V630H382.156V566.602H398.035L399.031 580.43ZM418.133 566.191L417.84 581.836C417.02 581.719 416.023 581.621 414.852 581.543C413.719 581.426 412.684 581.367 411.746 581.367C409.363 581.367 407.293 581.68 405.535 582.305C403.816 582.891 402.371 583.77 401.199 584.941C400.066 586.113 399.207 587.539 398.621 589.219C398.074 590.898 397.762 592.812 397.684 594.961L394.285 593.906C394.285 589.805 394.695 586.035 395.516 582.598C396.336 579.121 397.527 576.094 399.09 573.516C400.691 570.938 402.645 568.945 404.949 567.539C407.254 566.133 409.891 565.43 412.859 565.43C413.797 565.43 414.754 565.508 415.73 565.664C416.707 565.781 417.508 565.957 418.133 566.191ZM462.371 616.172V540H479.363V630H464.07L462.371 616.172ZM422.293 599.062V597.832C422.293 592.988 422.84 588.594 423.934 584.648C425.027 580.664 426.629 577.246 428.738 574.395C430.848 571.543 433.445 569.336 436.531 567.773C439.617 566.211 443.133 565.43 447.078 565.43C450.789 565.43 454.031 566.211 456.805 567.773C459.617 569.336 462 571.562 463.953 574.453C465.945 577.305 467.547 580.684 468.758 584.59C469.969 588.457 470.848 592.695 471.395 597.305V600C470.848 604.414 469.969 608.516 468.758 612.305C467.547 616.094 465.945 619.414 463.953 622.266C462 625.078 459.617 627.266 456.805 628.828C453.992 630.391 450.711 631.172 446.961 631.172C443.016 631.172 439.5 630.371 436.414 628.77C433.367 627.168 430.789 624.922 428.68 622.031C426.609 619.141 425.027 615.742 423.934 611.836C422.84 607.93 422.293 603.672 422.293 599.062ZM439.168 597.832V599.062C439.168 601.68 439.363 604.121 439.754 606.387C440.184 608.652 440.867 610.664 441.805 612.422C442.781 614.141 444.031 615.488 445.555 616.465C447.117 617.402 449.012 617.871 451.238 617.871C454.129 617.871 456.512 617.227 458.387 615.938C460.262 614.609 461.688 612.793 462.664 610.488C463.68 608.184 464.266 605.527 464.422 602.52V594.844C464.305 592.383 463.953 590.176 463.367 588.223C462.82 586.23 462 584.531 460.906 583.125C459.852 581.719 458.523 580.625 456.922 579.844C455.359 579.062 453.504 578.672 451.355 578.672C449.168 578.672 447.293 579.18 445.73 580.195C444.168 581.172 442.898 582.52 441.922 584.238C440.984 585.957 440.281 587.988 439.812 590.332C439.383 592.637 439.168 595.137 439.168 597.832ZM510.359 566.602V630H493.426V566.602H510.359ZM492.371 550.078C492.371 547.617 493.23 545.586 494.949 543.984C496.668 542.383 498.973 541.582 501.863 541.582C504.715 541.582 507 542.383 508.719 543.984C510.477 545.586 511.355 547.617 511.355 550.078C511.355 552.539 510.477 554.57 508.719 556.172C507 557.773 504.715 558.574 501.863 558.574C498.973 558.574 496.668 557.773 494.949 556.172C493.23 554.57 492.371 552.539 492.371 550.078ZM540.828 580.137V630H523.953V566.602H539.773L540.828 580.137ZM538.367 596.074H533.797C533.797 591.387 534.402 587.168 535.613 583.418C536.824 579.629 538.523 576.406 540.711 573.75C542.898 571.055 545.496 569.004 548.504 567.598C551.551 566.152 554.949 565.43 558.699 565.43C561.668 565.43 564.383 565.859 566.844 566.719C569.305 567.578 571.414 568.945 573.172 570.82C574.969 572.695 576.336 575.176 577.273 578.262C578.25 581.348 578.738 585.117 578.738 589.57V630H561.746V589.512C561.746 586.699 561.355 584.512 560.574 582.949C559.793 581.387 558.641 580.293 557.117 579.668C555.633 579.004 553.797 578.672 551.609 578.672C549.344 578.672 547.371 579.121 545.691 580.02C544.051 580.918 542.684 582.168 541.59 583.77C540.535 585.332 539.734 587.168 539.188 589.277C538.641 591.387 538.367 593.652 538.367 596.074ZM631.707 566.602H647V627.891C647 633.672 645.711 638.574 643.133 642.598C640.594 646.66 637.039 649.727 632.469 651.797C627.898 653.906 622.586 654.961 616.531 654.961C613.875 654.961 611.062 654.609 608.094 653.906C605.164 653.203 602.352 652.109 599.656 650.625C597 649.141 594.773 647.266 592.977 645L600.418 635.039C602.371 637.305 604.637 639.062 607.215 640.312C609.793 641.602 612.645 642.246 615.77 642.246C618.816 642.246 621.395 641.68 623.504 640.547C625.613 639.453 627.234 637.832 628.367 635.684C629.5 633.574 630.066 631.016 630.066 628.008V581.25L631.707 566.602ZM589.051 599.062V597.832C589.051 592.988 589.637 588.594 590.809 584.648C592.02 580.664 593.719 577.246 595.906 574.395C598.133 571.543 600.828 569.336 603.992 567.773C607.156 566.211 610.73 565.43 614.715 565.43C618.934 565.43 622.469 566.211 625.32 567.773C628.172 569.336 630.516 571.562 632.352 574.453C634.188 577.305 635.613 580.684 636.629 584.59C637.684 588.457 638.504 592.695 639.09 597.305V600C638.504 604.414 637.625 608.516 636.453 612.305C635.281 616.094 633.738 619.414 631.824 622.266C629.91 625.078 627.527 627.266 624.676 628.828C621.863 630.391 618.504 631.172 614.598 631.172C610.691 631.172 607.156 630.371 603.992 628.77C600.867 627.168 598.191 624.922 595.965 622.031C593.738 619.141 592.02 615.742 590.809 611.836C589.637 607.93 589.051 603.672 589.051 599.062ZM605.926 597.832V599.062C605.926 601.68 606.18 604.121 606.688 606.387C607.195 608.652 607.977 610.664 609.031 612.422C610.125 614.141 611.473 615.488 613.074 616.465C614.715 617.402 616.648 617.871 618.875 617.871C621.961 617.871 624.48 617.227 626.434 615.938C628.387 614.609 629.852 612.793 630.828 610.488C631.805 608.184 632.371 605.527 632.527 602.52V594.844C632.449 592.383 632.117 590.176 631.531 588.223C630.945 586.23 630.125 584.531 629.07 583.125C628.016 581.719 626.648 580.625 624.969 579.844C623.289 579.062 621.297 578.672 618.992 578.672C616.766 578.672 614.832 579.18 613.191 580.195C611.59 581.172 610.242 582.52 609.148 584.238C608.094 585.957 607.293 587.988 606.746 590.332C606.199 592.637 605.926 595.137 605.926 597.832Z" fill="white" fill-opacity="0.7"/>
<defs>
<filter id="filter0_d_93_26" x="0" y="0" width="1947" height="1093" filterUnits="userSpaceOnUse" color-interpolation-filters="sRGB">
<feFlood flood-opacity="0" result="BackgroundImageFix"/>
<feColorMatrix in="SourceAlpha" type="matrix" values="0 0 0 0 0 0 0 0 0 0 0 0 0 0 0 0 0 0 127 0" result="hardAlpha"/>
<feOffset dy="4"/>
<feGaussianBlur stdDeviation="2"/>
<feComposite in2="hardAlpha" operator="out"/>
<feColorMatrix type="matrix" values="0 0 0 0 0 0 0 0 0 0 0 0 0 0 0 0 0 0 0.25 0"/>
<feBlend mode="normal" in2="BackgroundImageFix" result="effect1_dropShadow_93_26"/>
<feBlend mode="normal" in="SourceGraphic" in2="effect1_dropShadow_93_26" result="shape"/>
</filter>
<linearGradient id="paint0_linear_93_26" x1="973.5" y1="0" x2="973.5" y2="1085" gradientUnits="userSpaceOnUse">
<stop offset="0.00833321" stop-color="white" stop-opacity="0.29"/>
<stop offset="0.810417" stop-color="#159EE1"/>
</linearGradient>
</defs>
</svg>
