<svg width="100" height="20" viewBox="0 0 100 20" fill="none" xmlns="http://www.w3.org/2000/svg">
<path fill-rule="evenodd" clip-rule="evenodd" d="M11.3416 0.516584L15.8886 0V7.07957C16.7264 5.86821 17.9231 4.76456 19.766 4.76456C22.5181 4.76456 24.1697 6.8102 24.1697 10.1211V19.6136H19.6463V11.7631C19.6463 10.148 18.9044 9.28665 17.8034 9.28665C16.7025 9.28665 15.8886 10.148 15.8886 11.7631V19.6136H11.3416V0.516584" fill="white"/>
<path fill-rule="evenodd" clip-rule="evenodd" d="M33.7724 12.4361V12.3821C33.7724 10.5787 32.5998 9.07137 30.9962 9.07137C29.3448 9.07137 28.2919 10.5516 28.2919 12.3283V12.3822C28.2919 14.1589 29.4406 15.6662 31.044 15.6662C32.6956 15.6662 33.7724 14.1858 33.7724 12.4361V12.4361ZM23.8882 12.4361V12.3821C23.8882 8.23684 26.9037 4.76447 31.044 4.76447C35.1848 4.76447 38.1764 8.18312 38.1764 12.3283V12.3822C38.1764 16.5276 35.1606 20 30.9962 20C26.8798 20 23.8882 16.5813 23.8882 12.4361Z" fill="white"/>
<path fill-rule="evenodd" clip-rule="evenodd" d="M50.2503 12.6074L48.1003 5.14968H44.3667L42.3562 12.3693L40.657 5.14968H36.2294L40.1784 19.6136H44.0556L46.2097 12.0947L48.3148 19.6136L50.2503 12.6074Z" fill="white"/>
<path fill-rule="evenodd" clip-rule="evenodd" d="M69.9309 5.14968H66.0537L63.8996 12.6942L61.7896 5.14968L59.8932 12.0146L62.009 19.6136H65.7423L67.7529 12.3943L69.4523 19.6136H73.8799L69.9309 5.14968Z" fill="white"/>
<path fill-rule="evenodd" clip-rule="evenodd" d="M0 17.7887L1.69939 14.7195C3.18337 15.8234 4.78722 16.3886 6.12745 16.3886C6.91721 16.3886 7.30026 16.1197 7.30026 15.6081V15.5542C7.30026 14.9617 6.55827 14.7194 5.19393 14.2889C2.6329 13.5352 0.598456 12.5661 0.598456 9.65861V9.60453C0.598456 6.50873 2.80054 4.78596 5.79239 4.78596C7.68331 4.78596 9.64588 5.40507 11.1299 6.48187L9.57422 9.71222C8.23377 8.85083 6.77368 8.33943 5.7444 8.33943C5.05041 8.33943 4.69145 8.63542 4.69145 9.06623V9.12036C4.69145 9.68573 5.45734 9.95462 6.7978 10.4123C9.35883 11.22 11.3933 12.2162 11.3933 15.0426V15.0966C11.3933 18.3002 9.26305 19.9692 6.10356 19.9692C3.92535 19.9692 1.77127 19.2424 0 17.7887" fill="white"/>
<path fill-rule="evenodd" clip-rule="evenodd" d="M85.7095 16.5375V8.35498L89.123 12.4488L85.7095 16.5375ZM82.0351 12.3892C82.0351 14.3273 80.7633 15.7004 79.2794 15.7004C77.8195 15.7004 76.5236 14.3273 76.5236 12.3892V12.3353C76.5236 10.3969 77.8195 9.02412 79.2794 9.02412C80.7633 9.02412 82.0351 10.4237 82.0351 12.3353V12.3892ZM100 5.14967H94.1823L91.7788 8.48931L89.3756 5.14967H81.8055V6.87037C80.8869 5.76671 79.8314 4.77078 77.8686 4.77078C74.8049 4.77078 72.1603 7.65117 72.1603 12.3892V12.443C72.1603 17.1001 74.8049 19.9808 77.8925 19.9808C79.8314 19.9808 80.8869 18.9308 81.8055 17.7195V19.6137H89.4355L91.7788 16.3583L94.1215 19.6137H99.9391L94.6878 12.4246L100 5.14967Z" fill="white"/>
<path opacity="0.75" fill-rule="evenodd" clip-rule="evenodd" d="M52.6924 19.6136H48.3148L52.3102 5.14968H56.6878L52.6924 19.6136Z" fill="url(#paint0_linear_75_7)"/>
<path opacity="0.75" fill-rule="evenodd" clip-rule="evenodd" d="M57.4119 5.14968H61.7896L57.794 19.6136H53.4164L57.4119 5.14968Z" fill="url(#paint1_linear_75_7)"/>
<defs>
<linearGradient id="paint0_linear_75_7" x1="142.179" y1="52.6091" x2="142.179" y2="13.7061" gradientUnits="userSpaceOnUse">
<stop stop-color="#C44A88"/>
<stop offset="1" stop-color="#E43F8C"/>
</linearGradient>
<linearGradient id="paint1_linear_75_7" x1="155.992" y1="13.7061" x2="155.992" y2="52.6091" gradientUnits="userSpaceOnUse">
<stop stop-color="#658D9D"/>
<stop offset="1" stop-color="#377B8B"/>
</linearGradient>
</defs>
</svg>
