<svg width="162" height="30" viewBox="0 0 162 30" fill="none" xmlns="http://www.w3.org/2000/svg">
<path fill-rule="evenodd" clip-rule="evenodd" d="M18.7369 1.24361L26.0484 0.5V10.6909C27.3955 8.94715 29.3197 7.35847 32.2831 7.35847C36.7084 7.35847 39.3641 10.3031 39.3641 15.0691V28.7333H32.0907V17.4327C32.0907 15.1078 30.8976 13.8679 29.1274 13.8679C27.3571 13.8679 26.0484 15.1078 26.0484 17.4327V28.7333H18.7369V1.24361" fill="white"/>
<path fill-rule="evenodd" clip-rule="evenodd" d="M54.805 18.4015V18.3237C54.805 15.7278 52.9195 13.558 50.3409 13.558C47.6855 13.558 45.9925 15.6888 45.9925 18.2463V18.3238C45.9925 20.8814 47.8395 23.0512 50.4178 23.0512C53.0735 23.0512 54.805 20.9201 54.805 18.4015V18.4015ZM38.9114 18.4015V18.3237C38.9114 12.3567 43.7603 7.35834 50.4178 7.35834C57.076 7.35834 61.8864 12.2794 61.8864 18.2463V18.3238C61.8864 24.2912 57.0372 29.2895 50.3409 29.2895C43.7218 29.2895 38.9114 24.3685 38.9114 18.4015Z" fill="white"/>
<path fill-rule="evenodd" clip-rule="evenodd" d="M81.3009 18.648L77.8439 7.91284H71.8403L68.6074 18.3053L65.8752 7.91284H58.7558L65.1057 28.7334H71.34L74.8037 17.91L78.1888 28.7334L81.3009 18.648Z" fill="white"/>
<path fill-rule="evenodd" clip-rule="evenodd" d="M112.947 7.91284H106.712L103.249 18.773L99.8558 7.91284L96.8064 17.7948L100.208 28.7334H106.212L109.445 18.3413L112.177 28.7334H119.297L112.947 7.91284Z" fill="white"/>
<path fill-rule="evenodd" clip-rule="evenodd" d="M0.5 26.1065L3.23257 21.6884C5.61876 23.2775 8.19771 24.091 10.3527 24.091C11.6227 24.091 12.2386 23.704 12.2386 22.9674V22.8899C12.2386 22.037 11.0455 21.6883 8.85168 21.0685C4.73363 19.9836 1.4623 18.5886 1.4623 14.4033V14.3255C1.4623 9.86916 5.00319 7.38928 9.81398 7.38928C12.8545 7.38928 16.0103 8.28047 18.3965 9.8305L15.895 14.4805C13.7396 13.2406 11.3919 12.5044 9.73682 12.5044C8.6209 12.5044 8.04371 12.9305 8.04371 13.5506V13.6285C8.04371 14.4424 9.27524 14.8294 11.4306 15.4883C15.5487 16.6509 18.82 18.0849 18.82 22.1534V22.2313C18.82 26.8427 15.3947 29.2452 10.3143 29.2452C6.81185 29.2452 3.34815 28.1989 0.5 26.1065" fill="white"/>
<path fill-rule="evenodd" clip-rule="evenodd" d="M138.318 24.3053V12.5268L143.807 18.4198L138.318 24.3053ZM132.41 18.3339C132.41 21.1239 130.365 23.1003 127.979 23.1003C125.631 23.1003 123.548 21.1239 123.548 18.3339V18.2564C123.548 15.4661 125.631 13.49 127.979 13.49C130.365 13.49 132.41 15.5047 132.41 18.2564V18.3339ZM161.297 7.91283H151.942L148.078 12.7202L144.213 7.91283H132.041V10.3897C130.564 8.80105 128.866 7.36743 125.71 7.36743C120.784 7.36743 116.532 11.5137 116.532 18.3339V18.4114C116.532 25.1152 120.784 29.2618 125.749 29.2618C128.866 29.2618 130.564 27.7505 132.041 26.0068V28.7335H144.31L148.078 24.0474L151.844 28.7335H161.199L152.755 18.385L161.297 7.91283Z" fill="white"/>
<path opacity="0.75" fill-rule="evenodd" clip-rule="evenodd" d="M85.2277 28.7334H78.1888L84.6133 7.91284H91.6522L85.2277 28.7334Z" fill="url(#paint0_linear_75_7)"/>
<path opacity="0.75" fill-rule="evenodd" clip-rule="evenodd" d="M92.8165 7.91284H99.8558L93.4309 28.7334H86.392L92.8165 7.91284Z" fill="url(#paint1_linear_75_7)"/>
<defs>
<linearGradient id="paint0_linear_75_7" x1="229.12" y1="76.2296" x2="229.12" y2="20.2296" gradientUnits="userSpaceOnUse">
<stop stop-color="#C44A88"/>
<stop offset="1" stop-color="#E43F8C"/>
</linearGradient>
<linearGradient id="paint1_linear_75_7" x1="251.33" y1="20.2296" x2="251.33" y2="76.2296" gradientUnits="userSpaceOnUse">
<stop stop-color="#658D9D"/>
<stop offset="1" stop-color="#377B8B"/>
</linearGradient>
</defs>
</svg>
